<svg width="100%" height="auto" viewBox="0 0 640 640" fill="none" xmlns="http://www.w3.org/2000/svg">
<g clip-path="url(#clip0_400_4292)">
<path d="M-48 64C-48 28.6538 -19.3462 0 16 0H640V688H-48V64Z" fill="#F7624C"/>
<path d="M2 114C2 78.6538 30.6538 50 66 50H640V688H2V114Z" fill="#F0AC87"/>
<path d="M52 164C52 128.654 80.6538 100 116 100H640V688H52V164Z" fill="#F7624C"/>
<path d="M102 214C102 178.654 130.654 150 166 150H640V688H102V214Z" fill="#F0AC87"/>
<path d="M152 264C152 228.654 180.654 200 216 200H640V688H152V264Z" fill="#F7624C"/>
<path d="M202 314C202 278.654 230.654 250 266 250H640V688H202V314Z" fill="#F0AC87"/>
<path d="M252 364C252 328.654 280.654 300 316 300H640V688H252V364Z" fill="#F7624C"/>
<path d="M302 414C302 378.654 330.654 350 366 350H640V688H302V414Z" fill="#F0AC87"/>
<path d="M352 464C352 428.654 380.654 400 416 400H640V688H352V464Z" fill="#F7624C"/>
<path d="M402 514C402 478.654 430.654 450 466 450H640V688H402V514Z" fill="#F0AC87"/>
<path d="M452 564C452 528.654 480.654 500 516 500H640V688H452V564Z" fill="#F7624C"/>
<path d="M502 614C502 578.654 530.654 550 566 550H640V688H502V614Z" fill="#F0AC87"/>
<path d="M552 664C552 628.654 580.654 600 616 600H739V787H552V664Z" fill="#F7624C"/>
</g>
<defs>
<clipPath id="clip0_400_4292">
<rect width="640" height="688" fill="white"/>
</clipPath>
</defs>
</svg>
